<svg width="99" height="130" viewBox="0 0 99 130" fill="none" xmlns="http://www.w3.org/2000/svg">
<path d="M41.0595 90.5784C41.6731 89.1344 42.3379 86.1088 42.0822 84.7765L49.9227 84.1318V129H28.4466C29.8101 119.459 31.7253 108.686 36.7984 98.1853C38.3173 95.0416 40.2925 92.3834 41.0595 90.5784Z" fill="#0BAEEE" stroke="#0BAEEE" stroke-width="1.66389"/>
<path d="M58.445 90.5784C57.8314 89.1344 57.1666 86.1088 57.4223 84.7765L49.5818 84.1318V129H71.0579C69.6944 119.459 67.7792 108.686 62.7061 98.1853C61.1872 95.0416 59.212 92.3834 58.445 90.5784Z" fill="#0BAEEE" stroke="#0BAEEE" stroke-width="1.66389"/>
<path d="M84.4044 48.5557C84.4812 45.1586 87.5168 42.3641 91.3062 42.4361C95.0958 42.5083 98.0032 45.4161 97.9264 48.8133C97.8495 52.2105 94.8132 55.0051 91.0236 54.9329C87.2342 54.8606 84.3276 51.9529 84.4044 48.5557Z" fill="#0BAEEE" stroke="#0BAEEE" stroke-width="1.66389"/>
<path d="M0.991958 48.7735C1.06877 45.3764 4.10431 42.5819 7.89374 42.6539C11.6833 42.7261 14.5907 45.6338 14.5139 49.0311C14.4371 52.4283 11.4007 55.2229 7.61117 55.1507C3.82177 55.0783 0.915177 52.1706 0.991958 48.7735Z" fill="#0BAEEE" stroke="#0BAEEE" stroke-width="1.66389"/>
<g filter="url(#filter0_d_222_59)">
<circle cx="49.4377" cy="45.5973" r="41.5973" fill="#0BAEEE"/>
<circle cx="49.4377" cy="45.5973" r="40.7654" stroke="#0BAEEE" stroke-width="1.66389"/>
</g>
<circle cx="30.3737" cy="44.773" r="4.79132" fill="black"/>
<circle cx="68.7314" cy="44.773" r="4.79132" fill="black"/>
<g filter="url(#filter1_d_222_59)">
<path d="M36.1897 53.501C41.5653 64.0546 57.4363 64.5748 62.812 53.501" stroke="black" stroke-width="2.49584" stroke-linecap="round"/>
</g>
<defs>
<filter id="filter0_d_222_59" x="1.18474" y="0.25624" width="93.594" height="93.5939" filterUnits="userSpaceOnUse" color-interpolation-filters="sRGB">
<feFlood flood-opacity="0" result="BackgroundImageFix"/>
<feColorMatrix in="SourceAlpha" type="matrix" values="0 0 0 0 0 0 0 0 0 0 0 0 0 0 0 0 0 0 127 0" result="hardAlpha"/>
<feOffset dx="-1.45591" dy="1.45591"/>
<feGaussianBlur stdDeviation="2.59983"/>
<feComposite in2="hardAlpha" operator="out"/>
<feColorMatrix type="matrix" values="0 0 0 0 0 0 0 0 0 0 0 0 0 0 0 0 0 0 0.25 0"/>
<feBlend mode="normal" in2="BackgroundImageFix" result="effect1_dropShadow_222_59"/>
<feBlend mode="normal" in="SourceGraphic" in2="effect1_dropShadow_222_59" result="shape"/>
</filter>
<filter id="filter1_d_222_59" x="34.1095" y="52.2527" width="30.7826" height="12.2718" filterUnits="userSpaceOnUse" color-interpolation-filters="sRGB">
<feFlood flood-opacity="0" result="BackgroundImageFix"/>
<feColorMatrix in="SourceAlpha" type="matrix" values="0 0 0 0 0 0 0 0 0 0 0 0 0 0 0 0 0 0 127 0" result="hardAlpha"/>
<feOffset dy="0.831947"/>
<feGaussianBlur stdDeviation="0.415973"/>
<feComposite in2="hardAlpha" operator="out"/>
<feColorMatrix type="matrix" values="0 0 0 0 0 0 0 0 0 0 0 0 0 0 0 0 0 0 0.25 0"/>
<feBlend mode="normal" in2="BackgroundImageFix" result="effect1_dropShadow_222_59"/>
<feBlend mode="normal" in="SourceGraphic" in2="effect1_dropShadow_222_59" result="shape"/>
</filter>
</defs>
</svg>
